<?xml version='1.0' encoding='UTF-8'?>
<!DOCTYPE svg PUBLIC "-//W3C//DTD SVG 1.0//EN" "http://www.w3.org/TR/2001/REC-SVG-20010904/DTD/svg10.dtd">
<svg viewBox="0 0 832 200" xmlns="http://www.w3.org/2000/svg" xmlns:inkspace="http://www.inkscape.org/namespaces/inkscape" xmlns:xlink="http://www.w3.org/1999/xlink">
  <defs id="defs_block">
    <filter height="1.504" id="filter_blur" inkspace:collect="always" width="1.1575" x="-0.07875" y="-0.252">
      <feGaussianBlur id="feGaussianBlur3780" inkspace:collect="always" stdDeviation="4.2" />
    </filter>
  </defs>
  <title>blockdiag</title>
  <desc>blockdiag {
    default_fontsize = 12; 
    Q1 [label="¿Es A?"]
    Q2 [label="¿Es B?"]
    Q3 [label="¿Es C?"]
    A [shape = circle];
    B [shape = circle];    
    C [shape = circle];
    D [shape = circle];
    
    
    Q1 -&gt; A [label = "S", fontsize=16]
    Q1 -&gt; Q2 [label = "N", fontsize=16]
    Q2 -&gt; B [label = "S", fontsize=16]
    Q2 -&gt; Q3 [label = "N", fontsize=16]
    Q3 -&gt; C [label = "S", fontsize=16]
    Q3 -&gt; D [label = "N", fontsize=16]

}
</desc>
  <rect fill="rgb(0,0,0)" height="40" stroke="rgb(0,0,0)" style="filter:url(#filter_blur);opacity:0.7;fill-opacity:1" width="128" x="67" y="46" />
  <rect fill="rgb(0,0,0)" height="40" stroke="rgb(0,0,0)" style="filter:url(#filter_blur);opacity:0.7;fill-opacity:1" width="128" x="259" y="46" />
  <ellipse cx="323" cy="146" fill="rgb(0,0,0)" rx="24.0" ry="24.0" stroke="rgb(0,0,0)" style="filter:url(#filter_blur);opacity:0.7;fill-opacity:1" />
  <rect fill="rgb(0,0,0)" height="40" stroke="rgb(0,0,0)" style="filter:url(#filter_blur);opacity:0.7;fill-opacity:1" width="128" x="451" y="46" />
  <ellipse cx="515" cy="146" fill="rgb(0,0,0)" rx="24.0" ry="24.0" stroke="rgb(0,0,0)" style="filter:url(#filter_blur);opacity:0.7;fill-opacity:1" />
  <ellipse cx="707" cy="66" fill="rgb(0,0,0)" rx="24.0" ry="24.0" stroke="rgb(0,0,0)" style="filter:url(#filter_blur);opacity:0.7;fill-opacity:1" />
  <ellipse cx="707" cy="146" fill="rgb(0,0,0)" rx="24.0" ry="24.0" stroke="rgb(0,0,0)" style="filter:url(#filter_blur);opacity:0.7;fill-opacity:1" />
  <rect fill="rgb(255,255,255)" height="40" stroke="rgb(0,0,0)" width="128" x="64" y="40" />
  <text fill="rgb(0,0,0)" font-family="sans-serif" font-size="12" font-style="normal" font-weight="normal" text-anchor="middle" textLength="39" x="128.5" y="66">¿Es A?</text>
  <rect fill="rgb(255,255,255)" height="40" stroke="rgb(0,0,0)" width="128" x="256" y="40" />
  <text fill="rgb(0,0,0)" font-family="sans-serif" font-size="12" font-style="normal" font-weight="normal" text-anchor="middle" textLength="39" x="320.5" y="66">¿Es B?</text>
  <ellipse cx="320" cy="140" fill="rgb(255,255,255)" rx="24.0" ry="24.0" stroke="rgb(0,0,0)" />
  <text fill="rgb(0,0,0)" font-family="sans-serif" font-size="12" font-style="normal" font-weight="normal" text-anchor="middle" textLength="6" x="320.0" y="146">A</text>
  <rect fill="rgb(255,255,255)" height="40" stroke="rgb(0,0,0)" width="128" x="448" y="40" />
  <text fill="rgb(0,0,0)" font-family="sans-serif" font-size="12" font-style="normal" font-weight="normal" text-anchor="middle" textLength="39" x="512.5" y="66">¿Es C?</text>
  <ellipse cx="512" cy="140" fill="rgb(255,255,255)" rx="24.0" ry="24.0" stroke="rgb(0,0,0)" />
  <text fill="rgb(0,0,0)" font-family="sans-serif" font-size="12" font-style="normal" font-weight="normal" text-anchor="middle" textLength="6" x="512.0" y="146">B</text>
  <ellipse cx="704" cy="60" fill="rgb(255,255,255)" rx="24.0" ry="24.0" stroke="rgb(0,0,0)" />
  <text fill="rgb(0,0,0)" font-family="sans-serif" font-size="12" font-style="normal" font-weight="normal" text-anchor="middle" textLength="6" x="704.0" y="66">C</text>
  <ellipse cx="704" cy="140" fill="rgb(255,255,255)" rx="24.0" ry="24.0" stroke="rgb(0,0,0)" />
  <text fill="rgb(0,0,0)" font-family="sans-serif" font-size="12" font-style="normal" font-weight="normal" text-anchor="middle" textLength="6" x="704.0" y="146">D</text>
  <path d="M 192 60 L 224 60" fill="none" stroke="rgb(0,0,0)" />
  <path d="M 224 60 L 224 140" fill="none" stroke="rgb(0,0,0)" />
  <path d="M 224 140 L 288 140" fill="none" stroke="rgb(0,0,0)" />
  <polygon fill="rgb(0,0,0)" points="295,140 288,136 288,144 295,140" stroke="rgb(0,0,0)" />
  <path d="M 192 60 L 248 60" fill="none" stroke="rgb(0,0,0)" />
  <polygon fill="rgb(0,0,0)" points="255,60 248,56 248,64 255,60" stroke="rgb(0,0,0)" />
  <path d="M 384 60 L 416 60" fill="none" stroke="rgb(0,0,0)" />
  <path d="M 416 60 L 416 140" fill="none" stroke="rgb(0,0,0)" />
  <path d="M 416 140 L 480 140" fill="none" stroke="rgb(0,0,0)" />
  <polygon fill="rgb(0,0,0)" points="487,140 480,136 480,144 487,140" stroke="rgb(0,0,0)" />
  <path d="M 384 60 L 440 60" fill="none" stroke="rgb(0,0,0)" />
  <polygon fill="rgb(0,0,0)" points="447,60 440,56 440,64 447,60" stroke="rgb(0,0,0)" />
  <path d="M 576 60 L 672 60" fill="none" stroke="rgb(0,0,0)" />
  <polygon fill="rgb(0,0,0)" points="679,60 672,56 672,64 679,60" stroke="rgb(0,0,0)" />
  <path d="M 576 60 L 608 60" fill="none" stroke="rgb(0,0,0)" />
  <path d="M 608 60 L 608 140" fill="none" stroke="rgb(0,0,0)" />
  <path d="M 608 140 L 672 140" fill="none" stroke="rgb(0,0,0)" />
  <polygon fill="rgb(0,0,0)" points="679,140 672,136 672,144 679,140" stroke="rgb(0,0,0)" />
  <rect fill="white" height="20" stroke="rgb(0,0,0)" width="24" x="212" y="115" />
  <text fill="rgb(0,0,0)" font-family="sans-serif" font-size="16" font-style="normal" font-weight="normal" text-anchor="middle" textLength="8" x="224.0" y="133">S</text>
  <rect fill="white" height="20" stroke="rgb(0,0,0)" width="24" x="212" y="35" />
  <text fill="rgb(0,0,0)" font-family="sans-serif" font-size="16" font-style="normal" font-weight="normal" text-anchor="middle" textLength="8" x="224.0" y="53">N</text>
  <rect fill="white" height="20" stroke="rgb(0,0,0)" width="24" x="404" y="115" />
  <text fill="rgb(0,0,0)" font-family="sans-serif" font-size="16" font-style="normal" font-weight="normal" text-anchor="middle" textLength="8" x="416.0" y="133">S</text>
  <rect fill="white" height="20" stroke="rgb(0,0,0)" width="24" x="404" y="35" />
  <text fill="rgb(0,0,0)" font-family="sans-serif" font-size="16" font-style="normal" font-weight="normal" text-anchor="middle" textLength="8" x="416.0" y="53">N</text>
  <rect fill="white" height="20" stroke="rgb(0,0,0)" width="24" x="596" y="35" />
  <text fill="rgb(0,0,0)" font-family="sans-serif" font-size="16" font-style="normal" font-weight="normal" text-anchor="middle" textLength="8" x="608.0" y="53">S</text>
  <rect fill="white" height="20" stroke="rgb(0,0,0)" width="24" x="596" y="115" />
  <text fill="rgb(0,0,0)" font-family="sans-serif" font-size="16" font-style="normal" font-weight="normal" text-anchor="middle" textLength="8" x="608.0" y="133">N</text>
</svg>
