<?xml version='1.0' encoding='UTF-8'?>
<!DOCTYPE svg PUBLIC "-//W3C//DTD SVG 1.0//EN" "http://www.w3.org/TR/2001/REC-SVG-20010904/DTD/svg10.dtd">
<svg viewBox="0 0 592 200" xmlns="http://www.w3.org/2000/svg" xmlns:inkspace="http://www.inkscape.org/namespaces/inkscape" xmlns:xlink="http://www.w3.org/1999/xlink">
  <defs id="defs_block">
    <filter height="1.504" id="filter_blur" inkspace:collect="always" width="1.1575" x="-0.07875" y="-0.252">
      <feGaussianBlur id="feGaussianBlur3780" inkspace:collect="always" stdDeviation="4.2" />
    </filter>
  </defs>
  <title>blockdiag</title>
  <desc>blockdiag {
    node_width = 200;
    default_fontsize = 14; 
    A [label="Transformación"]
    B [label="Cuantización"]
    C [label="Codificación de fuente"]
    D [label="Codificación de canal"]

    A -&gt; B -&gt; C -&gt; D
    B -&gt; C [folded]

}
</desc>
  <rect fill="rgb(0,0,0)" height="40" stroke="rgb(0,0,0)" style="filter:url(#filter_blur);opacity:0.7;fill-opacity:1" width="200" x="67" y="46" />
  <rect fill="rgb(0,0,0)" height="40" stroke="rgb(0,0,0)" style="filter:url(#filter_blur);opacity:0.7;fill-opacity:1" width="200" x="331" y="46" />
  <rect fill="rgb(0,0,0)" height="40" stroke="rgb(0,0,0)" style="filter:url(#filter_blur);opacity:0.7;fill-opacity:1" width="200" x="67" y="126" />
  <rect fill="rgb(0,0,0)" height="40" stroke="rgb(0,0,0)" style="filter:url(#filter_blur);opacity:0.7;fill-opacity:1" width="200" x="331" y="126" />
  <rect fill="rgb(255,255,255)" height="40" stroke="rgb(0,0,0)" width="200" x="64" y="40" />
  <text fill="rgb(0,0,0)" font-family="sans-serif" font-size="14" font-style="normal" font-weight="normal" text-anchor="middle" textLength="106" x="164.0" y="67">Transformación</text>
  <rect fill="rgb(255,255,255)" height="40" stroke="rgb(0,0,0)" width="200" x="328" y="40" />
  <text fill="rgb(0,0,0)" font-family="sans-serif" font-size="14" font-style="normal" font-weight="normal" text-anchor="middle" textLength="91" x="428.5" y="67">Cuantización</text>
  <rect fill="rgb(255,255,255)" height="40" stroke="rgb(0,0,0)" width="200" x="64" y="120" />
  <text fill="rgb(0,0,0)" font-family="sans-serif" font-size="14" font-style="normal" font-weight="normal" text-anchor="middle" textLength="168" x="164.0" y="147">Codificación de fuente</text>
  <rect fill="rgb(255,255,255)" height="40" stroke="rgb(0,0,0)" width="200" x="328" y="120" />
  <text fill="rgb(0,0,0)" font-family="sans-serif" font-size="14" font-style="normal" font-weight="normal" text-anchor="middle" textLength="160" x="428.0" y="147">Codificación de canal</text>
  <path d="M 264 60 L 320 60" fill="none" stroke="rgb(0,0,0)" />
  <polygon fill="rgb(0,0,0)" points="327,60 320,56 320,64 327,60" stroke="rgb(0,0,0)" />
  <path d="M 428 80 L 428 100" fill="none" stroke="rgb(0,0,0)" />
  <path d="M 164 100 L 428 100" fill="none" stroke="rgb(0,0,0)" />
  <path d="M 164 100 L 164 112" fill="none" stroke="rgb(0,0,0)" />
  <polygon fill="rgb(0,0,0)" points="164,119 160,112 168,112 164,119" stroke="rgb(0,0,0)" />
  <path d="M 264 140 L 320 140" fill="none" stroke="rgb(0,0,0)" />
  <polygon fill="rgb(0,0,0)" points="327,140 320,136 320,144 327,140" stroke="rgb(0,0,0)" />
</svg>
